<?xml version="1.0" encoding="UTF-8"?>
<svg width="752pt" height="752pt" version="1.1" viewBox="0 0 752 752" xmlns="http://www.w3.org/2000/svg">
 <g>
  <path d="m430.17 430.18-30.754-5.8164c-1.6016-0.30078-2.9258-1.4141-3.4414-2.918-1.3594-3.8867-2.9453-7.7148-4.7305-11.379-0.67578-1.3945-0.53516-3.0781 0.36328-4.3945l17.676-25.906c2.6172-3.8438 2.1328-9.0195-1.1562-12.301l-23.582-23.59c-3.2891-3.2852-8.4609-3.7695-12.305-1.1484l-25.906 17.668c-1.3164 0.89844-3 1.0391-4.3945 0.36328-3.6914-1.7891-7.5234-3.3828-11.387-4.7227-1.4961-0.52344-2.6133-1.8398-2.918-3.4414l-5.8086-30.762c-0.87109-4.5625-4.8672-7.875-9.5117-7.875h-33.363c-4.6523 0-8.6484 3.3164-9.5117 7.875l-5.8164 30.762c-0.30078 1.6016-1.4219 2.918-2.918 3.4414-3.8594 1.3359-7.6875 2.9336-11.371 4.7227-1.4062 0.67578-3.0938 0.52734-4.4023-0.35547l-25.906-17.684c-3.8438-2.6172-9.0117-2.1328-12.305 1.1562l-23.582 23.59c-3.2852 3.2852-3.7734 8.4609-1.1484 12.301l17.668 25.906c0.89844 1.3164 1.0391 3 0.36328 4.3945-1.7891 3.6914-3.3789 7.5156-4.7227 11.379-0.52344 1.5039-1.8398 2.6172-3.4414 2.918l-30.754 5.8164c-4.5742 0.86328-7.8906 4.8594-7.8906 9.5117v33.359c0 4.6523 3.3164 8.6562 7.8828 9.5195l30.762 5.8164c1.6016 0.30078 2.918 1.4219 3.4414 2.9102 1.3359 3.8633 2.9258 7.6875 4.7227 11.379 0.67578 1.3984 0.53516 3.0859-0.36328 4.4023l-17.668 25.906c-2.625 3.8359-2.1367 9.0117 1.1484 12.301l23.582 23.59c3.2891 3.2812 8.4609 3.7812 12.305 1.1484l25.906-17.668c1.3242-0.90625 3-1.0312 4.4023-0.36328 3.6719 1.7812 7.5 3.3711 11.371 4.7227 1.4961 0.52344 2.6172 1.8398 2.918 3.4414l5.8164 30.754c0.86328 4.5703 4.8594 7.8828 9.5117 7.8828h33.359c4.6445 0 8.6445-3.3164 9.5117-7.8828l5.8086-30.754c0.30469-1.6016 1.4219-2.918 2.918-3.4414 3.8633-1.3438 7.6953-2.9336 11.387-4.7227 1.3945-0.67578 3.0781-0.53516 4.3945 0.35547l25.906 17.676c3.8359 2.6172 9.0117 2.1367 12.305-1.1484l23.582-23.59c3.2891-3.2852 3.7734-8.4531 1.1562-12.301l-17.676-25.906c-0.89844-1.3164-1.0391-3-0.35547-4.4023 1.7773-3.6641 3.3633-7.4922 4.7227-11.371v-0.007812c0.51562-1.4961 1.8398-2.6133 3.4414-2.9102l30.754-5.8164c4.5703-0.86328 7.8828-4.8672 7.8828-9.5195v-33.359c0.003906-4.6523-3.3086-8.6484-7.8789-9.5117m-134.54 85.195c-32.531 0-59.004-26.465-59.004-59.004 0-32.531 26.473-58.996 59.004-58.996s59.004 26.465 59.004 58.996c0 32.539-26.473 59.004-59.004 59.004" fill="#fff" stroke="#fff" stroke-miterlimit="10" stroke-width="5"/>
  <path d="m592.16 244.36-24.117-4.5625c-1.0586-0.19531-1.9297-0.93359-2.2695-1.9219-1.0742-3.0781-2.3242-6.1016-3.7266-8.9766-0.44531-0.91406-0.34766-2.0195 0.23828-2.8828l13.859-20.32c2.207-3.2383 1.7969-7.5898-0.96875-10.355l-18.496-18.496c-2.7734-2.7734-7.1328-3.1758-10.355-0.96875l-20.316 13.859c-0.86328 0.58594-1.9648 0.68359-2.8828 0.23828-2.9102-1.4141-5.9336-2.668-8.9922-3.7344-0.98047-0.33594-1.7148-1.2031-1.9062-2.2617l-4.5625-24.117c-0.72266-3.8438-4.0938-6.6367-8.0156-6.6367h-26.145c-3.9141 0-7.2852 2.793-8.0156 6.6367l-4.5625 24.117c-0.19531 1.0586-0.92578 1.9297-1.9141 2.2695-3.0859 1.0742-6.1016 2.3281-8.9844 3.7266-0.91406 0.44531-2.0117 0.34766-2.8828-0.23828l-20.309-13.859c-3.2305-2.207-7.5898-1.8047-10.363 0.96875l-18.492 18.496c-2.7734 2.7656-3.1758 7.1172-0.96875 10.363l13.852 20.316c0.59375 0.86328 0.68359 1.9727 0.24219 2.875-1.4141 2.9062-2.668 5.9258-3.7344 8.9922-0.33984 0.98047-1.2031 1.7188-2.2617 1.9141l-24.117 4.5625c-3.8438 0.72266-6.6367 4.0938-6.6367 8.0078v26.16c0 3.9219 2.793 7.293 6.6367 8.0156l24.117 4.5625c1.0586 0.19531 1.9219 0.93359 2.2617 1.9141 1.0664 3.0586 2.3203 6.0781 3.7344 8.9766 0.4375 0.91797 0.34766 2.0273-0.24219 2.8984l-13.859 20.309c-2.1992 3.2383-1.7969 7.5977 0.97656 10.363l18.492 18.496c2.7734 2.7734 7.125 3.168 10.363 0.96875l20.309-13.859c0.86328-0.58594 1.9766-0.68359 2.8828-0.23828 2.9023 1.4062 5.9258 2.668 8.9844 3.7266 0.98828 0.33984 1.7188 1.2109 1.9141 2.2695l4.5625 24.117c0.73047 3.8516 4.1016 6.6445 8.0156 6.6445h26.145c3.9219 0 7.293-2.8008 8.0156-6.6445l4.5625-24.117c0.19531-1.0586 0.92578-1.9297 1.9141-2.2695 3.0508-1.0586 6.0742-2.3125 8.9844-3.7266 0.91797-0.44531 2.0195-0.34766 2.8828 0.23828l20.316 13.859c3.2305 2.207 7.5898 1.8047 10.355-0.96875l18.496-18.496c2.7656-2.7656 3.1758-7.125 0.96875-10.363l-13.859-20.309c-0.58594-0.87109-0.68359-1.9766-0.23828-2.8906 1.3984-2.875 2.6523-5.8984 3.7266-8.9766 0-0.007813 0-0.007813 0.007813-0.007813 0.33594-0.98047 1.2031-1.7188 2.2617-1.9141l24.109-4.5625c3.8516-0.72266 6.6445-4.0938 6.6445-8.0156v-26.16c0.003906-3.918-2.7891-7.2891-6.6367-8.0117m-105.59 67.352c-25.504 0-46.258-20.754-46.258-46.266 0-25.504 20.754-46.258 46.258-46.258 25.504 0 46.258 20.754 46.258 46.258 0 25.512-20.754 46.266-46.258 46.266" fill="#fff" stroke="#fff" stroke-miterlimit="10" stroke-width="5"/>
  <path d="m593.57 505.15-16.555-3.1289c-0.4375-0.082032-0.80078-0.38281-0.94141-0.78516-0.74609-2.1367-1.6172-4.2344-2.5977-6.2539-0.17578-0.36328-0.13281-0.80859 0.10547-1.1562l9.5195-13.957c1.7344-2.543 1.4062-5.9766-0.77344-8.1484l-12.688-12.695c-2.1875-2.1875-5.6133-2.5078-8.1562-0.76562l-13.949 9.5156c-0.34766 0.24219-0.79297 0.28516-1.1562 0.10547-2.0273-0.98047-4.1172-1.8516-6.2617-2.5898-0.39844-0.14062-0.69531-0.5-0.78125-0.94141l-3.1328-16.562c-0.57031-3.0312-3.2227-5.2227-6.3047-5.2227h-17.953c-3.0781 0-5.7305 2.1953-6.3086 5.2227l-3.1289 16.562c-0.082031 0.4375-0.38281 0.80078-0.78125 0.93359-2.1445 0.74609-4.2344 1.6172-6.2539 2.5977-0.36328 0.17578-0.81641 0.14063-1.1641-0.10547l-13.941-9.5117c-2.5508-1.7422-5.9805-1.4219-8.1562 0.76562l-12.695 12.695c-2.1797 2.1719-2.5 5.6055-0.76562 8.1562l9.5117 13.949c0.24219 0.34766 0.27734 0.79297 0.10547 1.1562-0.98047 2.0195-1.8516 4.1172-2.5898 6.2617-0.14062 0.39844-0.5 0.69531-0.94141 0.78125l-16.562 3.1289c-3.0234 0.57812-5.2227 3.2305-5.2227 6.3086v17.961c0 3.0781 2.1992 5.7305 5.2227 6.3047l16.566 3.1328c0.43359 0.082031 0.79297 0.38281 0.92578 0.78125 0.74609 2.1445 1.6172 4.2344 2.5977 6.2539 0.17578 0.36328 0.14062 0.81641-0.10547 1.1641l-9.5117 13.949c-1.7344 2.543-1.4141 5.9766 0.76562 8.1562l12.688 12.688c2.1797 2.1875 5.6133 2.5078 8.1641 0.77344l13.941-9.5195c0.35547-0.23828 0.80078-0.27734 1.1641-0.097656 2.0195 0.97656 4.1094 1.8438 6.2461 2.5898 0.40234 0.14062 0.70312 0.5 0.78516 0.94141l3.1289 16.562c0.57812 3.0234 3.2305 5.2227 6.3086 5.2227h17.953c3.0781 0 5.7305-2.1992 6.3047-5.2227l3.1328-16.566c0.082031-0.43359 0.38281-0.79297 0.78125-0.93359 2.1445-0.74609 4.2344-1.6172 6.2539-2.5898 0.36719-0.1875 0.81641-0.14453 1.1641 0.097657l13.949 9.5195c2.543 1.7422 5.9766 1.4062 8.1562-0.76562l12.688-12.695c2.1797-2.1797 2.5078-5.6055 0.76563-8.1562l-9.5078-13.941c-0.24219-0.36328-0.28516-0.80078-0.11328-1.1641 0.98047-2.0273 1.8516-4.1172 2.5977-6.2617 0.14062-0.39844 0.49609-0.69531 0.94141-0.78125l16.555-3.1328c3.0234-0.57031 5.2227-3.2227 5.2227-6.3047v-17.961c0.011719-3.0859-2.1914-5.7422-5.2109-6.3203m-72.648 47.055c-17.508 0-31.758-14.25-31.758-31.766s14.25-31.766 31.758-31.766c17.516 0 31.758 14.25 31.758 31.766s-14.242 31.766-31.758 31.766" fill="#fff" stroke="#fff" stroke-miterlimit="10" stroke-width="5"/>
 </g>
</svg>
