<?xml version="1.0" encoding="UTF-8"?>
<svg width="752pt" height="752pt" version="1.1" viewBox="0 0 752 752" xmlns="http://www.w3.org/2000/svg">
 <g>
  <path d="m329.48 182.82v211.63c0 0.46094-0.37109 0.83203-0.83203 0.83203l-55.406-0.003906c-0.46094 0-0.83203-0.37109-0.83203-0.83203v-211.63z" fill="none" stroke="#000" stroke-miterlimit="10" stroke-width="5"/>
  <path d="m441.21 413.74v155.44h-130.88v-155.44h18.312c10.637 0 19.332-8.6484 19.332-19.332l0.003906-211.58h56.055v211.63c0 10.637 8.6484 19.332 19.332 19.332l17.848-0.003906z" fill="#fff" stroke="#fff" stroke-miterlimit="10" stroke-width="5"/>
  <path d="m479.6 182.82v211.63c0 0.46094-0.37109 0.83203-0.83203 0.83203l-55.406-0.003906c-0.46094 0-0.83203-0.37109-0.83203-0.83203v-211.63z" fill="none" stroke="#000" stroke-miterlimit="10" stroke-width="5"/>
  <path d="m569.18 204.65v342.75c0 12.023-9.8047 21.828-21.828 21.828h-87.641v-155.49h19.055c10.637 0 19.332-8.6484 19.332-19.332v-211.58h49.254c12.07 0 21.828 9.7578 21.828 21.828z" fill="#fff" stroke="#fff" stroke-miterlimit="10" stroke-width="5"/>
  <path d="m291.83 413.74v155.44h-87.176c-12.023 0-21.828-9.8047-21.828-21.828v-342.7c0-12.023 9.8047-21.828 21.828-21.828h49.254v211.63c0 10.637 8.6484 19.332 19.332 19.332l18.59-0.003906z" fill="#fff" stroke="#fff" stroke-miterlimit="10" stroke-width="5"/>
 </g>
</svg>
