<?xml version="1.0" encoding="UTF-8"?>
<svg width="752pt" height="752pt" version="1.1" viewBox="0 0 752 752" xmlns="http://www.w3.org/2000/svg">
 <path d="m541.75 281.29h-331.5c-26.051 0-47.359 21.312-47.359 47.359v94.715c0 26.047 21.312 47.359 47.359 47.359h331.51c26.047 0 47.359-21.312 47.359-47.359l-0.003907-94.715c0-26.047-21.312-47.359-47.359-47.359zm23.68 142.07c0 13.262-10.418 23.68-23.68 23.68h-331.5c-13.262 0-23.68-10.418-23.68-23.68v-71.035h23.68v47.359c0 6.6289 5.2109 11.84 11.84 11.84 6.6289-0.003907 11.836-5.2109 11.836-11.844v-47.355h11.84v47.359c0 6.6289 5.2109 11.84 11.84 11.84 6.6289 0 11.84-5.2109 11.84-11.84v-47.359h11.84v47.359c0 6.6289 5.2109 11.84 11.84 11.84 6.6289-0.003907 11.84-5.2109 11.84-11.844v-47.355h41.676v47.359c0 6.6289 5.2109 11.84 11.84 11.84 6.6289 0 11.84-5.2109 11.84-11.84v-47.359h11.84v47.359c0 6.6289 5.2109 11.84 11.84 11.84s11.84-5.2109 11.84-11.84l-0.003906-47.359h41.203v47.359c0 6.6289 5.2109 11.84 11.84 11.84 6.6289-0.003907 11.84-5.2109 11.84-11.844v-47.355h11.84v47.359c0 6.6289 5.2109 11.84 11.84 11.84 6.6289 0 11.84-5.2109 11.84-11.84l-0.003906-47.359h11.84v47.359c0 6.6289 5.2109 11.84 11.84 11.84 6.6328-0.003907 11.84-5.2109 11.84-11.844v-47.355h23.68zm-378.86-94.715c0-13.262 10.418-23.68 23.68-23.68h331.51c13.262 0 23.68 10.418 23.68 23.68z" fill="#fff" stroke="#fff" stroke-miterlimit="10" stroke-width="5"/>
</svg>
